<svg width="74" height="49" viewBox="0 0 74 49" fill="none"
    xmlns="http://www.w3.org/2000/svg">
    <g clip-path="url(#clip0_3_7279)">
        <g clip-path="url(#clip1_3_7279)">
            <path fill-rule="evenodd" clip-rule="evenodd" d="M38.8593 7.59441L38.7938 7.51369C38.4477 7.13701 37.8278 7.16389 37.5207 7.59437L31.7936 15.6222L31.6593 15.8164C29.1707 19.5308 30.2978 24.5946 34.1728 26.8975C35.166 27.4873 36.2572 27.8404 37.3678 27.9568L37.3684 30.1802L37.3739 30.2758C37.4214 30.6835 37.7686 31 38.1899 31C38.6437 31 39.0115 30.6329 39.0115 30.1802L39.0114 27.9568C40.1219 27.8404 41.213 27.4873 42.206 26.8976L42.4072 26.7739L42.604 26.6444C46.2307 24.1819 47.1469 19.2118 44.5854 15.6221L38.8593 7.59441ZM48.6616 24.6569C48.7527 24.2133 48.4663 23.78 48.0218 23.6891C47.5774 23.5981 47.1431 23.8839 47.052 24.3275C46.9247 24.9465 46.6293 25.4851 46.2113 25.9477C46.0071 26.1736 45.7875 26.3659 45.5694 26.5231L45.437 26.6146L45.2337 26.7383C44.8948 26.9709 44.777 27.4252 44.9741 27.7968C45.1864 28.197 45.6836 28.3496 46.0846 28.1378C46.4432 27.9483 46.9388 27.591 47.4315 27.0457C48.0348 26.3781 48.4714 25.5824 48.6616 24.6569ZM38.19 14.3984C37.7687 14.3984 37.4214 14.7149 37.3739 15.1226L37.3684 15.2182L37.3681 18.3246L36.1208 17.0516L36.0442 16.9825C35.7247 16.7289 35.2585 16.7465 34.9591 17.0388C34.6597 17.3311 34.6318 17.7958 34.8788 18.1202L34.9463 18.1981L37.3082 20.6076L37.3681 20.6619L37.3684 24.4414L37.3739 24.537C37.4214 24.9447 37.7687 25.2612 38.19 25.2612C38.5789 25.2612 38.9047 24.9915 38.9898 24.6293L39.006 24.537L39.0104 24.4561L41.7834 21.4809L41.8489 21.4012C42.0876 21.0707 42.0479 20.6068 41.7412 20.3222C41.4344 20.0376 40.9679 20.0318 40.6549 20.2934L40.5801 20.3644L39.0112 22.0474L39.0115 15.2182L39.006 15.1226C38.9585 14.7149 38.6113 14.3984 38.19 14.3984ZM30.5076 14.2021C30.7651 13.8859 30.7523 13.4205 30.4626 13.1187C30.1487 12.7918 29.6286 12.7806 29.301 13.0939C28.9855 13.3954 28.5454 13.9407 28.1129 14.721C27.7621 15.3541 27.476 16.0505 27.277 16.8082C27.162 17.2462 27.4246 17.6943 27.8635 17.8091C28.3024 17.9239 28.7514 17.6619 28.8665 17.2239C29.0296 16.6026 29.264 16.0321 29.5508 15.5145C29.7539 15.148 29.9705 14.8307 30.1849 14.5651L30.3154 14.4093L30.5076 14.2021Z" fill="#BDBDBD"/>
        </g>
    </g>
    <path d="M14.4311 44.8665C14.3644 44.8665 14.3078 44.8465 14.2611 44.8065C14.2211 44.7598 14.2011 44.7031 14.2011 44.6365V38.1065C14.2011 38.0331 14.2211 37.9765 14.2611 37.9365C14.3078 37.8898 14.3644 37.8665 14.4311 37.8665H14.9311C15.0111 37.8665 15.0711 37.8865 15.1111 37.9265C15.1511 37.9665 15.1744 37.9998 15.1811 38.0265L17.3011 42.0665L19.4311 38.0265C19.4444 37.9998 19.4678 37.9665 19.5011 37.9265C19.5411 37.8865 19.6011 37.8665 19.6811 37.8665H20.1711C20.2444 37.8665 20.3011 37.8898 20.3411 37.9365C20.3878 37.9765 20.4111 38.0331 20.4111 38.1065V44.6365C20.4111 44.7031 20.3878 44.7598 20.3411 44.8065C20.3011 44.8465 20.2444 44.8665 20.1711 44.8665H19.6811C19.6144 44.8665 19.5578 44.8465 19.5111 44.8065C19.4711 44.7598 19.4511 44.7031 19.4511 44.6365V39.7165L17.7811 42.9765C17.7544 43.0431 17.7144 43.0965 17.6611 43.1365C17.6078 43.1698 17.5411 43.1865 17.4611 43.1865H17.1511C17.0644 43.1865 16.9944 43.1698 16.9411 43.1365C16.8944 43.0965 16.8544 43.0431 16.8211 42.9765L15.1511 39.7165V44.6365C15.1511 44.7031 15.1278 44.7598 15.0811 44.8065C15.0411 44.8465 14.9878 44.8665 14.9211 44.8665H14.4311ZM22.6805 46.7665C22.6272 46.7665 22.5805 46.7465 22.5405 46.7065C22.5005 46.6665 22.4805 46.6198 22.4805 46.5665C22.4805 46.5398 22.4839 46.5131 22.4905 46.4865C22.4972 46.4598 22.5105 46.4265 22.5305 46.3865L23.3005 44.5565L21.3905 40.0465C21.3572 39.9665 21.3405 39.9098 21.3405 39.8765C21.3405 39.8165 21.3605 39.7665 21.4005 39.7265C21.4405 39.6865 21.4905 39.6665 21.5505 39.6665H22.0405C22.1072 39.6665 22.1605 39.6831 22.2005 39.7165C22.2405 39.7498 22.2672 39.7898 22.2805 39.8365L23.8005 43.4765L25.3605 39.8365C25.3805 39.7898 25.4072 39.7498 25.4405 39.7165C25.4805 39.6831 25.5372 39.6665 25.6105 39.6665H26.0805C26.1405 39.6665 26.1905 39.6865 26.2305 39.7265C26.2705 39.7665 26.2905 39.8131 26.2905 39.8665C26.2905 39.8998 26.2739 39.9598 26.2405 40.0465L23.4005 46.5965C23.3805 46.6431 23.3505 46.6831 23.3105 46.7165C23.2772 46.7498 23.2239 46.7665 23.1505 46.7665H22.6805ZM31.6559 44.9665C31.0692 44.9665 30.5692 44.8565 30.1559 44.6365C29.7492 44.4165 29.4359 44.1065 29.2159 43.7065C29.0025 43.3065 28.8825 42.8365 28.8559 42.2965C28.8492 42.0031 28.8459 41.6931 28.8459 41.3665C28.8459 41.0331 28.8492 40.7165 28.8559 40.4165C28.8825 39.8765 29.0025 39.4098 29.2159 39.0165C29.4359 38.6231 29.7525 38.3165 30.1659 38.0965C30.5792 37.8765 31.0759 37.7665 31.6559 37.7665C32.1292 37.7665 32.5392 37.8331 32.8859 37.9665C33.2325 38.0998 33.5159 38.2698 33.7359 38.4765C33.9625 38.6765 34.1292 38.8865 34.2359 39.1065C34.3492 39.3265 34.4092 39.5198 34.4159 39.6865C34.4225 39.7465 34.4059 39.7965 34.3659 39.8365C34.3259 39.8698 34.2725 39.8865 34.2059 39.8865H33.6159C33.5492 39.8865 33.4992 39.8731 33.4659 39.8465C33.4392 39.8198 33.4125 39.7731 33.3859 39.7065C33.3259 39.5331 33.2259 39.3631 33.0859 39.1965C32.9525 39.0298 32.7692 38.8931 32.5359 38.7865C32.3092 38.6731 32.0159 38.6165 31.6559 38.6165C31.1292 38.6165 30.7025 38.7598 30.3759 39.0465C30.0559 39.3331 29.8825 39.8065 29.8559 40.4665C29.8359 41.0598 29.8359 41.6531 29.8559 42.2465C29.8825 42.9131 30.0592 43.3931 30.3859 43.6865C30.7125 43.9731 31.1392 44.1165 31.6659 44.1165C32.0192 44.1165 32.3325 44.0531 32.6059 43.9265C32.8859 43.7931 33.1059 43.5898 33.2659 43.3165C33.4259 43.0431 33.5059 42.6965 33.5059 42.2765V41.8565H32.0059C31.9392 41.8565 31.8825 41.8365 31.8359 41.7965C31.7959 41.7498 31.7759 41.6898 31.7759 41.6165V41.2965C31.7759 41.2231 31.7959 41.1665 31.8359 41.1265C31.8825 41.0798 31.9392 41.0565 32.0059 41.0565H34.2659C34.3392 41.0565 34.3959 41.0798 34.4359 41.1265C34.4759 41.1665 34.4959 41.2231 34.4959 41.2965V42.2565C34.4959 42.8031 34.3825 43.2798 34.1559 43.6865C33.9359 44.0931 33.6125 44.4098 33.1859 44.6365C32.7592 44.8565 32.2492 44.9665 31.6559 44.9665ZM37.0025 44.9665C36.6692 44.9665 36.3658 44.8998 36.0925 44.7665C35.8192 44.6331 35.5992 44.4531 35.4325 44.2265C35.2658 43.9998 35.1825 43.7431 35.1825 43.4565C35.1825 42.9965 35.3692 42.6298 35.7425 42.3565C36.1158 42.0831 36.6025 41.9031 37.2025 41.8165L38.6925 41.6065V41.3165C38.6925 40.9965 38.5992 40.7465 38.4125 40.5665C38.2325 40.3865 37.9358 40.2965 37.5225 40.2965C37.2225 40.2965 36.9792 40.3565 36.7925 40.4765C36.6125 40.5965 36.4858 40.7498 36.4125 40.9365C36.3725 41.0365 36.3025 41.0865 36.2025 41.0865H35.7525C35.6792 41.0865 35.6225 41.0665 35.5825 41.0265C35.5492 40.9798 35.5325 40.9265 35.5325 40.8665C35.5325 40.7665 35.5692 40.6431 35.6425 40.4965C35.7225 40.3498 35.8425 40.2065 36.0025 40.0665C36.1625 39.9265 36.3658 39.8098 36.6125 39.7165C36.8658 39.6165 37.1725 39.5665 37.5325 39.5665C37.9325 39.5665 38.2692 39.6198 38.5425 39.7265C38.8158 39.8265 39.0292 39.9631 39.1825 40.1365C39.3425 40.3098 39.4558 40.5065 39.5225 40.7265C39.5958 40.9465 39.6325 41.1698 39.6325 41.3965V44.6365C39.6325 44.7031 39.6092 44.7598 39.5625 44.8065C39.5225 44.8465 39.4692 44.8665 39.4025 44.8665H38.9425C38.8692 44.8665 38.8125 44.8465 38.7725 44.8065C38.7325 44.7598 38.7125 44.7031 38.7125 44.6365V44.2065C38.6258 44.3265 38.5092 44.4465 38.3625 44.5665C38.2158 44.6798 38.0325 44.7765 37.8125 44.8565C37.5925 44.9298 37.3225 44.9665 37.0025 44.9665ZM37.2125 44.2165C37.4858 44.2165 37.7358 44.1598 37.9625 44.0465C38.1892 43.9265 38.3658 43.7431 38.4925 43.4965C38.6258 43.2498 38.6925 42.9398 38.6925 42.5665V42.2865L37.5325 42.4565C37.0592 42.5231 36.7025 42.6365 36.4625 42.7965C36.2225 42.9498 36.1025 43.1465 36.1025 43.3865C36.1025 43.5731 36.1558 43.7298 36.2625 43.8565C36.3758 43.9765 36.5158 44.0665 36.6825 44.1265C36.8558 44.1865 37.0325 44.2165 37.2125 44.2165ZM41.0601 44.8665C40.9934 44.8665 40.9367 44.8465 40.8901 44.8065C40.8501 44.7598 40.8301 44.7031 40.8301 44.6365V39.9065C40.8301 39.8398 40.8501 39.7831 40.8901 39.7365C40.9367 39.6898 40.9934 39.6665 41.0601 39.6665H41.5201C41.5867 39.6665 41.6434 39.6898 41.6901 39.7365C41.7367 39.7831 41.7601 39.8398 41.7601 39.9065V40.3465C41.8934 40.1198 42.0767 39.9498 42.3101 39.8365C42.5434 39.7231 42.8234 39.6665 43.1501 39.6665H43.5501C43.6167 39.6665 43.6701 39.6898 43.7101 39.7365C43.7501 39.7765 43.7701 39.8298 43.7701 39.8965V40.3065C43.7701 40.3731 43.7501 40.4265 43.7101 40.4665C43.6701 40.5065 43.6167 40.5265 43.5501 40.5265H42.9501C42.5901 40.5265 42.3067 40.6331 42.1001 40.8465C41.8934 41.0531 41.7901 41.3365 41.7901 41.6965V44.6365C41.7901 44.7031 41.7667 44.7598 41.7201 44.8065C41.6734 44.8465 41.6167 44.8665 41.5501 44.8665H41.0601ZM46.1815 44.9665C45.8148 44.9665 45.4981 44.9031 45.2315 44.7765C44.9648 44.6431 44.7448 44.4665 44.5715 44.2465C44.4048 44.0198 44.2781 43.7631 44.1915 43.4765C44.1115 43.1898 44.0648 42.8865 44.0515 42.5665C44.0448 42.4598 44.0415 42.3598 44.0415 42.2665C44.0415 42.1731 44.0448 42.0731 44.0515 41.9665C44.0648 41.6531 44.1115 41.3531 44.1915 41.0665C44.2781 40.7798 44.4048 40.5231 44.5715 40.2965C44.7448 40.0698 44.9648 39.8931 45.2315 39.7665C45.4981 39.6331 45.8148 39.5665 46.1815 39.5665C46.5748 39.5665 46.9015 39.6365 47.1615 39.7765C47.4215 39.9165 47.6348 40.0898 47.8015 40.2965V37.9965C47.8015 37.9298 47.8215 37.8765 47.8615 37.8365C47.9081 37.7898 47.9648 37.7665 48.0315 37.7665H48.5115C48.5781 37.7665 48.6315 37.7898 48.6715 37.8365C48.7181 37.8765 48.7415 37.9298 48.7415 37.9965V44.6365C48.7415 44.7031 48.7181 44.7598 48.6715 44.8065C48.6315 44.8465 48.5781 44.8665 48.5115 44.8665H48.0615C47.9881 44.8665 47.9315 44.8465 47.8915 44.8065C47.8515 44.7598 47.8315 44.7031 47.8315 44.6365V44.2165C47.6648 44.4298 47.4481 44.6098 47.1815 44.7565C46.9148 44.8965 46.5815 44.9665 46.1815 44.9665ZM46.3915 44.1565C46.7248 44.1565 46.9915 44.0798 47.1915 43.9265C47.3915 43.7731 47.5415 43.5798 47.6415 43.3465C47.7415 43.1065 47.7948 42.8631 47.8015 42.6165C47.8081 42.5098 47.8115 42.3831 47.8115 42.2365C47.8115 42.0831 47.8081 41.9531 47.8015 41.8465C47.7948 41.6131 47.7381 41.3831 47.6315 41.1565C47.5315 40.9298 47.3781 40.7431 47.1715 40.5965C46.9715 40.4498 46.7115 40.3765 46.3915 40.3765C46.0515 40.3765 45.7815 40.4531 45.5815 40.6065C45.3815 40.7531 45.2381 40.9498 45.1515 41.1965C45.0648 41.4365 45.0148 41.6965 45.0015 41.9765C44.9948 42.1698 44.9948 42.3631 45.0015 42.5565C45.0148 42.8365 45.0648 43.0998 45.1515 43.3465C45.2381 43.5865 45.3815 43.7831 45.5815 43.9365C45.7815 44.0831 46.0515 44.1565 46.3915 44.1565ZM52.0587 44.9665C51.3721 44.9665 50.8254 44.7565 50.4187 44.3365C50.0121 43.9098 49.7887 43.3298 49.7487 42.5965C49.7421 42.5098 49.7387 42.3998 49.7387 42.2665C49.7387 42.1265 49.7421 42.0131 49.7487 41.9265C49.7754 41.4531 49.8854 41.0398 50.0787 40.6865C50.2721 40.3265 50.5354 40.0498 50.8687 39.8565C51.2087 39.6631 51.6054 39.5665 52.0587 39.5665C52.5654 39.5665 52.9887 39.6731 53.3287 39.8865C53.6754 40.0998 53.9387 40.4031 54.1187 40.7965C54.2987 41.1898 54.3887 41.6498 54.3887 42.1765V42.3465C54.3887 42.4198 54.3654 42.4765 54.3187 42.5165C54.2787 42.5565 54.2254 42.5765 54.1587 42.5765H50.6987C50.6987 42.5831 50.6987 42.5965 50.6987 42.6165C50.6987 42.6365 50.6987 42.6531 50.6987 42.6665C50.7121 42.9398 50.7721 43.1965 50.8787 43.4365C50.9854 43.6698 51.1387 43.8598 51.3387 44.0065C51.5387 44.1531 51.7787 44.2265 52.0587 44.2265C52.2987 44.2265 52.4987 44.1898 52.6587 44.1165C52.8187 44.0431 52.9487 43.9631 53.0487 43.8765C53.1487 43.7831 53.2154 43.7131 53.2487 43.6665C53.3087 43.5798 53.3554 43.5298 53.3887 43.5165C53.4221 43.4965 53.4754 43.4865 53.5487 43.4865H54.0287C54.0954 43.4865 54.1487 43.5065 54.1887 43.5465C54.2354 43.5798 54.2554 43.6298 54.2487 43.6965C54.2421 43.7965 54.1887 43.9198 54.0887 44.0665C53.9887 44.2065 53.8454 44.3465 53.6587 44.4865C53.4721 44.6265 53.2454 44.7431 52.9787 44.8365C52.7121 44.9231 52.4054 44.9665 52.0587 44.9665ZM50.6987 41.8865H53.4387V41.8565C53.4387 41.5565 53.3821 41.2898 53.2687 41.0565C53.1621 40.8231 53.0054 40.6398 52.7987 40.5065C52.5921 40.3665 52.3454 40.2965 52.0587 40.2965C51.7721 40.2965 51.5254 40.3665 51.3187 40.5065C51.1187 40.6398 50.9654 40.8231 50.8587 41.0565C50.7521 41.2898 50.6987 41.5565 50.6987 41.8565V41.8865ZM55.5745 44.8665C55.5078 44.8665 55.4511 44.8465 55.4045 44.8065C55.3645 44.7598 55.3445 44.7031 55.3445 44.6365V39.8965C55.3445 39.8298 55.3645 39.7765 55.4045 39.7365C55.4511 39.6898 55.5078 39.6665 55.5745 39.6665H56.0445C56.1111 39.6665 56.1645 39.6898 56.2045 39.7365C56.2511 39.7765 56.2745 39.8298 56.2745 39.8965V40.3365C56.4478 40.1098 56.6645 39.9265 56.9245 39.7865C57.1911 39.6398 57.5311 39.5665 57.9445 39.5665C58.3778 39.5665 58.7445 39.6631 59.0445 39.8565C59.3511 40.0431 59.5811 40.3065 59.7345 40.6465C59.8878 40.9798 59.9645 41.3698 59.9645 41.8165V44.6365C59.9645 44.7031 59.9445 44.7598 59.9045 44.8065C59.8645 44.8465 59.8111 44.8665 59.7445 44.8665H59.2445C59.1778 44.8665 59.1211 44.8465 59.0745 44.8065C59.0345 44.7598 59.0145 44.7031 59.0145 44.6365V41.8665C59.0145 41.3998 58.9011 41.0365 58.6745 40.7765C58.4478 40.5098 58.1145 40.3765 57.6745 40.3765C57.2611 40.3765 56.9278 40.5098 56.6745 40.7765C56.4278 41.0365 56.3045 41.3998 56.3045 41.8665V44.6365C56.3045 44.7031 56.2811 44.7598 56.2345 44.8065C56.1945 44.8465 56.1411 44.8665 56.0745 44.8665H55.5745Z" fill="#979798"/>
    <defs>
        <clipPath id="clip0_3_7279">
            <rect width="25" height="25" fill="white" transform="translate(24 6)"/>
        </clipPath>
        <clipPath id="clip1_3_7279">
            <rect width="25" height="25" fill="white" transform="translate(26 6)"/>
        </clipPath>
    </defs>
</svg>
